<svg xmlns="http://www.w3.org/2000/svg" version="1.1" xmlns:xlink="http://www.w3.org/1999/xlink" xmlns:svgjs="http://svgjs.com/svgjs" width="1440" height="560" preserveAspectRatio="none" viewBox="0 0 1440 560"><g mask="url(&quot;#SvgjsMask1007&quot;)" fill="none"><rect width="1440" height="560" x="0" y="0" fill="rgba(254, 241, 239, 1)"></rect><path d="M720 674.54C828.22 671.27 939.37 652.47 1016.75 576.75 1094.85 500.35 1125.31 389.21 1123.24 280 1121.2 173 1075.64 75.32 1005.63-5.63 929.03-94.2 837.1-185.97 720-186.28 602.73-186.58 510.25-95.22 432.8-7.2 361.3 74.1 314.82 171.85 309.79 280 304.49 393.93 322.54 516.16 404.75 595.25 485.94 673.35 607.43 677.94 720 674.54" fill="rgba(255, 228, 225, 1)"></path><path d="M720 535.29C790.03 533.18 861.94 521.01 912.02 472.02 962.55 422.58 982.26 350.66 980.92 280 979.6 210.77 950.12 147.56 904.82 95.18 855.26 37.87 795.77-21.51 720-21.71 644.12-21.91 584.28 37.21 534.17 94.17 487.9 146.77 457.83 210.02 454.57 280 451.14 353.72 462.82 432.81 516.02 483.98 568.55 534.52 647.16 537.49 720 535.29" fill="rgba(255, 204, 199, 1)"></path><path d="M720 396.04C751.83 395.08 784.52 389.55 807.28 367.28 830.25 344.81 839.21 312.12 838.6 280 838 248.53 824.6 219.8 804.01 195.99 781.48 169.94 754.44 142.95 720 142.86 685.51 142.77 658.31 169.64 635.53 195.53 614.5 219.44 600.83 248.19 599.35 280 597.79 313.51 603.1 349.46 627.28 372.72 651.16 395.69 686.89 397.04 720 396.04" fill="rgba(255, 255, 255, 1)"></path></g><defs><mask id="SvgjsMask1007"><rect width="1440" height="560" fill="#ffffff"></rect></mask></defs></svg>